<svg width="128" height="128" viewBox="0 0 128 128" fill="none" xmlns="http://www.w3.org/2000/svg">
  <rect width="128" height="128" rx="28" fill="#FFF8F3"/>

  <rect x="52" y="14" width="10" height="18" fill="#6FA65A"/>
  <rect x="62" y="10" width="12" height="18" fill="#84C86A"/>
  <rect x="74" y="16" width="10" height="16" fill="#6FA65A"/>
  <rect x="40" y="20" width="18" height="10" fill="#84C86A"/>
  <rect x="74" y="20" width="18" height="10" fill="#84C86A"/>

  <rect x="24" y="30" width="80" height="16" fill="#FF8796"/>
  <rect x="20" y="46" width="88" height="16" fill="#FF6B7F"/>
  <rect x="18" y="62" width="92" height="18" fill="#FF5B74"/>
  <rect x="24" y="80" width="84" height="16" fill="#FF6B7F"/>
  <rect x="34" y="96" width="64" height="12" fill="#FF8796"/>

  <rect x="38" y="42" width="8" height="8" fill="#FFE07A"/>
  <rect x="58" y="38" width="8" height="8" fill="#FFE07A"/>
  <rect x="78" y="44" width="8" height="8" fill="#FFE07A"/>
  <rect x="48" y="58" width="8" height="8" fill="#FFE07A"/>
  <rect x="70" y="60" width="8" height="8" fill="#FFE07A"/>
  <rect x="58" y="76" width="8" height="8" fill="#FFE07A"/>
</svg>
